<?xml version="1.0" encoding="UTF-8" standalone="no"?>
<!-- Created with Inkscape (http://www.inkscape.org/) -->

<svg
   width="209.82991mm"
   height="55.5625mm"
   viewBox="0 0 209.82991 55.5625"
   version="1.1"
   id="svg1"
   xml:space="preserve"
   inkscape:version="1.4.4 (dcaf3e7d9e, 2026-05-05)"
   sodipodi:docname="hero_2.svg"
   xmlns:inkscape="http://www.inkscape.org/namespaces/inkscape"
   xmlns:sodipodi="http://sodipodi.sourceforge.net/DTD/sodipodi-0.dtd"
   xmlns="http://www.w3.org/2000/svg"
   xmlns:svg="http://www.w3.org/2000/svg"><sodipodi:namedview
     id="namedview1"
     pagecolor="#505050"
     bordercolor="#eeeeee"
     borderopacity="1"
     inkscape:showpageshadow="0"
     inkscape:pageopacity="0"
     inkscape:pagecheckerboard="0"
     inkscape:deskcolor="#505050"
     inkscape:document-units="mm"
     inkscape:zoom="1.0324986"
     inkscape:cx="410.65431"
     inkscape:cy="77.966207"
     inkscape:window-width="2560"
     inkscape:window-height="1368"
     inkscape:window-x="0"
     inkscape:window-y="0"
     inkscape:window-maximized="1"
     inkscape:current-layer="layer1" /><defs
     id="defs1" /><g
     inkscape:label="Layer 1"
     inkscape:groupmode="layer"
     id="layer1"
     transform="translate(-1.4901664,-104.22658)"><g
       id="g1"
       transform="matrix(0.26458333,0,0,0.26458333,-1.6625964,104.22658)"><path
         style="fill:#ffffff;fill-opacity:1;stroke-width:1.00043"
         d="M 100.37137,0 189.37306,35.211403 172.06321,142.88519 100.50732,210 28.77016,142.79457 11.915954,35.422406 Z"
         id="path21"
         sodipodi:nodetypes="ccccccc" /><path
         style="display:none;fill:#ffffff;fill-opacity:1;stroke-width:1.0004"
         d="m 100.38059,0 55.93465,19.555719 5.19403,2.465199 24.67664,13.000717 3.05347,3.928037 -17.21107,103.836258 -2.71664,4.17656 L 100.44387,210 31.539388,146.94942 28.854403,142.77393 11.649118,38.906666 14.676417,35.036575 39.301593,22.055086 44.540652,19.555719 Z"
         id="path20"
         sodipodi:nodetypes="ccccccccccccccc" /><g
         id="g16"
         transform="matrix(0.93885935,0,0,0.93885935,0.57532723,5.0967432)"
         style="fill:#d7261b;fill-opacity:1"><path
           style="display:inline;fill:#d7261b;fill-opacity:1"
           d="m 190.522,43.75755 -21.47109,13.40811 -6.87953,66.43168 12.31639,12.42821 z"
           id="path5"
           sodipodi:nodetypes="ccccc" /><path
           style="display:inline;fill:#d7261b;fill-opacity:1"
           d="m 22.609447,43.905643 21.47109,13.408111 6.87953,66.431686 -12.31639,12.42821 z"
           id="path5-6"
           sodipodi:nodetypes="ccccc" /><path
           style="fill:#d7261b;fill-opacity:1"
           d="M 106.30853,6.8865123 181.1625,36.065909 161.97027,50.18559 106.34056,31.261563 52.493505,50.446812 31.85709,35.893243 106.30853,6.8865123"
           id="path15"
           sodipodi:nodetypes="ccccccc" /><path
           style="fill:#d7261b;fill-opacity:1"
           d="m 54.379853,132.02006 52.001727,47.99288 51.84451,-48.20182 13.42943,14.36446 -65.27394,59.81558 -65.319242,-59.81558 z"
           id="path16"
           sodipodi:nodetypes="ccccccc" /></g><path
         id="path18"
         style="fill:#f3c407;fill-opacity:1;stroke-width:0.613027"
         d="M 100.39108,69.705271 A 35.321783,35.321783 0 0 0 65.068511,105.02784 35.321783,35.321783 0 0 0 100.39108,140.3504 35.321783,35.321783 0 0 0 135.71364,105.02784 35.321783,35.321783 0 0 0 100.39108,69.705271 Z m 0,12.50381 a 11.205584,11.205584 0 0 1 11.20509,11.206833 11.205584,11.205584 0 0 1 -5.23658,9.483916 l 5.38784,24.67729 H 89.034727 l 5.3322,-24.71206 A 11.205584,11.205584 0 0 1 89.185983,93.415914 11.205584,11.205584 0 0 1 100.39108,82.209081 Z" /></g><path
       style="font-weight:bold;font-size:33.161px;line-height:0;font-family:'Nimbus Sans';-inkscape-font-specification:'Nimbus Sans';letter-spacing:1.05833px;word-spacing:0px;fill:#ffffff;stroke-width:1.3;stroke-linecap:square;paint-order:markers stroke fill"
       d="m 61.384434,134.37175 h 11.573189 v -4.14513 H 61.384434 v -5.47156 h 12.501697 v -4.14513 H 56.410284 v 24.17437 h 18.072745 v -4.14512 H 61.384434 Z m 27.354996,1.39276 5.836336,-8.88715 h -5.571048 l -2.885007,5.40525 -2.918168,-5.40525 h -5.571047 l 5.836335,8.88715 -5.968979,9.01979 h 5.571047 l 3.050812,-5.57105 3.017651,5.57105 h 5.571048 z m 16.87613,-9.1856 c -5.47156,0 -8.820823,3.61455 -8.820823,9.48405 0,5.90266 3.349263,9.48404 8.853983,9.48404 5.47157,0 8.85399,-3.58138 8.85399,-9.3514 0,-6.06846 -3.28294,-9.61669 -8.88715,-9.61669 z m 0.0332,3.7472 c 2.5534,0 4.21145,2.28811 4.21145,5.80317 0,3.34926 -1.72437,5.67053 -4.21145,5.67053 -2.52023,0 -4.21144,-2.28811 -4.21144,-5.73685 0,-3.44874 1.69121,-5.73685 4.21144,-5.73685 z m 31.43381,-2.35443 c -0.0332,-5.00732 -3.38242,-7.75968 -9.48405,-7.75968 -5.80317,0 -9.15243,2.7192 -9.15243,7.42807 0,3.74719 1.89018,5.57104 6.798,6.49955 l 3.38243,0.66322 c 3.3161,0.63006 4.54305,1.55857 4.54305,3.51507 0,2.02282 -1.85701,3.24977 -4.87466,3.24977 -3.38243,0 -5.2726,-1.42592 -5.43841,-4.01248 h -4.8415 c 0.29844,5.17312 3.84667,7.9918 10.01462,7.9918 6.23427,0 9.91514,-2.885 9.91514,-7.82599 0,-3.81352 -1.92334,-5.80318 -6.40008,-6.66536 l -3.78035,-0.72954 c -3.54823,-0.69638 -4.57622,-1.39277 -4.57622,-3.1503 0,-1.82385 1.59173,-2.98449 4.17829,-2.98449 3.15029,0 4.90783,1.32644 5.07363,3.78036 z m 20.75597,9.31824 c 0.0332,-0.39794 0.0332,-0.56374 0.0332,-0.79587 0,-1.79069 -0.26529,-3.44874 -0.69638,-4.70886 -1.1938,-3.24978 -4.0788,-5.20628 -7.69335,-5.20628 -5.13996,0 -8.29025,3.71404 -8.29025,9.71618 0,5.73685 3.11713,9.25191 8.19076,9.25191 4.01249,0 7.26226,-2.25494 8.29025,-5.80317 h -4.57621 c -0.56374,1.42592 -1.85702,2.25495 -3.54823,2.25495 -1.32644,0 -2.38759,-0.56374 -3.05081,-1.55857 -0.4311,-0.66322 -0.5969,-1.45908 -0.66322,-3.15029 z m -11.93796,-3.08398 c 0.29845,-2.75236 1.45908,-4.0788 3.51507,-4.0788 2.1223,0 3.38242,1.42592 3.61454,4.0788 z m 16.14657,-7.32858 v 17.90694 h 4.64254 v -9.51721 c 0,-2.7192 1.3596,-4.0788 4.07881,-4.0788 0.49741,0 0.82902,0.0332 1.45908,0.13265 v -4.70887 c -0.26529,-0.0332 -0.36477,-0.0332 -0.56374,-0.0332 -2.1223,0 -3.94616,1.39277 -4.97415,3.81352 v -3.51507 z m 24.1384,17.90694 6.16795,-17.90694 h -4.90783 l -3.61455,13.0986 -3.87984,-13.0986 h -4.90782 l 6.26743,17.90694 z m 24.70211,-7.49438 c 0.0332,-0.39794 0.0332,-0.56374 0.0332,-0.79587 0,-1.79069 -0.26529,-3.44874 -0.69638,-4.70886 -1.1938,-3.24978 -4.07881,-5.20628 -7.69335,-5.20628 -5.13996,0 -8.29025,3.71404 -8.29025,9.71618 0,5.73685 3.11713,9.25191 8.19076,9.25191 4.01248,0 7.26226,-2.25494 8.29025,-5.80317 h -4.57622 c -0.56373,1.42592 -1.85701,2.25495 -3.54822,2.25495 -1.32644,0 -2.38759,-0.56374 -3.05081,-1.55857 -0.4311,-0.66322 -0.5969,-1.45908 -0.66322,-3.15029 z m -11.93796,-3.08398 c 0.29845,-2.75236 1.45908,-4.0788 3.51506,-4.0788 2.12231,0 3.38243,1.42592 3.61455,4.0788 z"
       id="text1"
       aria-label="ExoServe" /></g><style
     id="style1">.a{fill:#fff}.b{fill:#be352d}.c{fill:#333}</style></svg>
